# AST/ASF file generated using VICON BodyLanguage
# -----------------------------------------------
:version 1.10
:name VICON
:units
  mass 1.0
  length 0.45
  angle deg
:documentation
   .ast/.asf automatically generated from VICON data using
   VICON BodyBuilder and BodyLanguage model FoxedUp or BRILLIANT.MOD
:root
   order TX TY TZ RX RY RZ
   axis XYZ
   position 0 0 0  
   orientation 0 0 0 
:bonedata
  begin
     id 1 
     name lhipjoint
     direction 0.573633 -0.743009 0.344793 
     length 2.46257 
     axis 0 0 0  XYZ
  end
  begin
     id 2 
     name lfemur
     direction 0.34202 -0.939693 0  
     length 7.3842  
     axis 0 0 20  XYZ
    dof rx ry rz
    limits (-160.0 20.0)
           (-70.0 70.0)
           (-60.0 70.0)
  end
  begin
     id 3 
     name ltibia
     direction 0.34202 -0.939693 0   
     length 7.50407   
     axis 0 0 20   XYZ
    dof rx
    limits (-10.0 170.0)
  end
  begin
     id 4 
     name lfoot
     direction 0.110749 -0.304281 0.946123   
     length 1.95925   
     axis -90 7.62852e-016 20   XYZ
    dof rx rz
    limits (-45.0 90.0)
           (-70.0 20.0)
  end
  begin
     id 5 
     name ltoes
     direction 1.53554e-011 -4.21843e-011 1   
     length 0.978318   
     axis -90 7.62852e-016 20   XYZ
    dof rx
    limits (-90.0 20.0)
  end
  begin
     id 6 
     name rhipjoint
     direction -0.488109 -0.791693 0.367385   
     length 2.31113  
     axis 0 0 0  XYZ 
  end
  begin
     id 7 
     name rfemur
     direction -0.34202 -0.939693 0   
     length 7.40965   
     axis 0 0 -20   XYZ
    dof rx ry rz
    limits (-160.0 20.0)
           (-70.0 70.0)
           (-70.0 60.0)
  end
  begin
     id 8 
     name rtibia
     direction -0.34202 -0.939693 0   
     length 7.55548   
     axis 0 0 -20   XYZ
    dof rx
    limits (-10.0 170.0)
 end
 begin
     id 9 
     name rfoot
     direction -0.127594 -0.350561 0.927808   
     length 2.07199  
     axis -90 -7.62852e-016 -20   XYZ
    dof rx rz
    limits (-45.0 90.0)
           (-20.0 70.0)
  end
  begin
     id 10 
     name rtoes
     direction -1.53542e-011 -4.21909e-011 1   
     length 1.02667   
     axis -90 -7.62852e-016 -20   XYZ
    dof rx
    limits (-90.0 20.0)
  end
  begin
     id 11 
     name lowerback
     direction -0.0103342 0.997298 -0.0727278   
     length 2.02836   
     axis 0 0 0   XYZ
    dof rx ry rz
    limits (-20.0 45.0)
           (-30.0 30.0)
           (-30.0 30.0)
  end
  begin
     id 12 
     name upperback
     direction 0.0171146 0.999786 -0.011606   
     length 2.03179   
     axis 0 0 0   XYZ
    dof rx ry rz
    limits (-20.0 45.0)
           (-30.0 30.0)
           (-30.0 30.0)
  end
  begin
     id 13 
     name thorax
     direction 0.0216927 0.999513 0.0224343   
     length 2.03882   
     axis 0 0 0   XYZ
    dof rx ry rz
    limits (-20.0 45.0)
           (-30.0 30.0)
           (-30.0 30.0)
  end
  begin
     id 14 
     name lowerneck
     direction 0.000989287 0.993907 0.110221   
     length 1.75428   
     axis 0 0 0   XYZ
    dof rx ry rz
    limits (-20.0 45.0)
           (-30.0 30.0)
           (-30.0 30.0)
  end
  begin
     id 15 
     name upperneck
     direction -0.0172474 0.994813 -0.100253   
     length 1.77058   
     axis 0 0 0   XYZ
    dof rx ry rz
    limits (-20.0 45.0)
           (-30.0 30.0)
           (-30.0 30.0)
  end
  begin
     id 16
     name head
     direction -0.00486455 0.99894 -0.0457663  
     length 1.77427  
     axis 0 0 0   XYZ
    dof rx ry rz
    limits (-20.0 45.0)
           (-30.0 30.0)
           (-30.0 30.0)
  end
  begin
     id 17 
     name lclavicle
     direction 0.927314 0.333734 -0.169441  
     length 3.97584  
     axis 0 0 0   XYZ
    dof ry rz
    limits (-20.0 10.0)
           (0.0 20.0)
  end
  begin
     id 18 
     name lhumerus
     direction 1 -4.48965e-011 -3.25313e-028   
     length 4.76468   
     axis 180 -30 -90   XYZ
    dof rx ry rz
    limits (-60.0 90.0)
           (-90.0 90.0)
           (-90.0 90.0)
  end
  begin
     id 19
     name lradius
     direction 1 -4.48969e-011 -2.8465e-028   
     length 3.52712   
     axis -180 -30 -90   XYZ
    dof rx
    limits (-10.0 170.0)
  end
  begin
     id 20
     name lwrist
     direction 1 -4.4896e-011 -7.78665e-028   
     length 1.76356   
     axis 1.91374e-015 90 90   XYZ
    dof ry
    limits (-180.0 0.0)
 end
  begin
     id 21 
     name lhand
     direction 1 -4.48959e-011 -1.55733e-027   
     length 0.859564   
     axis 9.9371e-016 90 90   XYZ
    dof rx rz
    limits (-90.0 90.0)
           (-45.0 45.0)
  end
  begin
     id 22 
     name lfingers
     direction 1 -4.48965e-011 -3.11466e-027   
     length 0.693002   
     axis 1.98742e-015 90 90   XYZ
    dof rx
    limits (0.0 90.0)
  end
  begin
     id 23
     name lthumb
     direction 0.707107 -6.34948e-011 0.707107   
     length 0.995017   
     axis -90 45 2.85299e-015   XYZ
    dof rx rz
    limits (-45.0 45.0)
           (-45.0 45.0)
  end
  begin
     id 24 
     name rclavicle
     direction -0.899388 0.348209 -0.264294   
     length 3.68366  
     axis 0 0 0   XYZ 
    dof ry rz
    limits (-10.0 20.0)
           (-20.0 0.0)
  end
  begin
     id 25 
     name rhumerus
     direction -1 -4.48965e-011 -3.01536e-027  
     length 4.90577   
     axis 180 30 90   XYZ
    dof rx ry rz
    limits (-90.0 60.0)
           (-90.0 90.0)
           (-90.0 90.0)
  end
  begin
     id 26 
     name rradius
     direction -1 -4.48966e-011 3.93291e-027   
     length 3.42692   
     axis -180 30 90   XYZ
    dof rx
    limits (-10.0 170.0)
  end
  begin
     id 27 
     name rwrist
     direction -1 -4.48969e-011 -7.78665e-028   
     length 1.71346   
     axis 1.91374e-015 -90 -90   XYZ
    dof ry
    limits (-180.0 0.0)
  end
  begin
     id 28
     name rhand
     direction -1 -4.48967e-011 -1.55733e-027   
     length 0.740957   
     axis 9.9371e-016 -90 -90   XYZ
    dof rx rz
    limits (-90.0 90.0)
           (-45.0 45.0)
  end
  begin
     id 29
     name rfingers
     direction -1 -4.48949e-011 -3.11466e-027   
     length 0.597378   
     axis 1.98742e-015 -90 -90   XYZ
    dof rx
    limits (0.0 90.0)
  end
  begin
     id 30
     name rthumb
     direction -0.707107 -6.34931e-011 0.707107   
     length 0.857719   
     axis -90 -45 -2.85299e-015   XYZ
    dof rx rz
    limits (-45.0 45.0)
           (-45.0 45.0)
  end
:hierarchy
  begin
    root lhipjoint rhipjoint lowerback
    lhipjoint lfemur
    lfemur ltibia
    ltibia lfoot
    lfoot ltoes
    rhipjoint rfemur
    rfemur rtibia
    rtibia rfoot
    rfoot rtoes
    lowerback upperback
    upperback thorax
    thorax lowerneck lclavicle rclavicle
    lowerneck upperneck
    upperneck head
    lclavicle lhumerus
    lhumerus lradius
    lradius lwrist
    lwrist lhand lthumb
    lhand lfingers
    rclavicle rhumerus
    rhumerus rradius
    rradius rwrist
    rwrist rhand rthumb
    rhand rfingers
  end

#!OML:ASF E:\I on waltz\AllaLogoMonkeySwing\Project 1\Capture day 1\Session 1\Subject1.ASF
:FULLY-SPECIFIED
:DEGREES
437
root 0.218219 17.5795 -26.6916 1.73063 1.11329 2.86196
lowerback 10.8771 1.41434 -4.42029
upperback 1.28916 1.37405 0.440133
thorax -4.86773 0.766257 2.74712
lowerneck -6.14838 10.5009 7.20608
upperneck 12.4264 15.3895 -13.2599
head 6.38421 7.02857 -4.05714
rclavicle -8.15017e-015 4.77083e-015
rhumerus -30.5837 -12.2236 -81.48
rradius 35.1621
rwrist 1.50613
rhand -8.64915 -398.829
rfingers 7.12502
rthumb 17.2841 -68.08
lclavicle -8.15017e-015 4.77083e-015
lhumerus -38.2637 18.9515 77.2693
lradius 44.4948
lwrist 0.983124
lhand -11.9058 -15.4993
lfingers 7.12502
lthumb 14.1478 13.999
rfemur -18.6088 -4.61038 13.6473
rtibia 44.5537
rfoot -26.0601 -8.32622
rtoes 12.6407
lfemur -8.63829 0.831502 -24.9921
ltibia 26.8437
lfoot -21.1749 0.631906
ltoes -23.1906
438
root 0.235161 17.5794 -26.7271 1.59276 0.975018 2.71846
lowerback 10.8791 1.38629 -4.48987
upperback 1.32347 1.32578 0.376288
thorax -4.82885 0.74175 2.72708
lowerneck -6.09652 10.2377 7.18257
upperneck 12.4124 15.0202 -13.226
head 6.32566 6.85347 -4.08848
rclavicle 7.90169e-015 -1.61016e-014
rhumerus -30.131 -10.024 -82.704
rradius 37.1063
rwrist 1.17372
rhand -8.3682 -398.799
rfingers 7.12502
rthumb 17.5545 -68.0269
lclavicle 7.90169e-015 -1.61016e-014
lhumerus -38.5721 19.3192 76.9161
lradius 44.0591
lwrist 1.21974
lhand -12.5362 -15.5723
lfingers 7.12502
lthumb 13.5402 13.9675
rfemur -18.5409 -4.843 14.1924
rtibia 45.1317
rfoot -26.2066 -6.73214
rtoes 12.1231
lfemur -8.7167 0.839806 -24.9215
ltibia 27.0641
lfoot -21.2478 0.757472
ltoes -22.4101
439
root 0.246461 17.5761 -26.7594 1.49944 1.0153 2.58677
lowerback 10.8258 1.31643 -4.61386
upperback 1.35206 1.2193 0.327764
thorax -4.76193 0.689227 2.76336
lowerneck -6.06733 9.97775 7.19066
upperneck 12.4323 14.6479 -13.144
head 6.28001 6.67907 -4.10759
rclavicle -9.61621e-015 1.43125e-014
rhumerus -29.7533 -7.98703 -83.7586
rradius 38.769
rwrist 0.846525
rhand -8.26176 -398.445
rfingers 7.12502
rthumb 17.657 -67.6638
lclavicle -9.61621e-015 1.43125e-014
lhumerus -38.7765 19.7176 76.5309
lradius 43.4416
lwrist 0.969866
lhand -12.8588 -15.5825
lfingers 7.12502
lthumb 13.2293 13.9778
rfemur -18.3252 -4.99116 14.7362
rtibia 45.3921
rfoot -26.3309 -5.14083
rtoes 10.0404
lfemur -8.86616 0.962415 -24.827
ltibia 27.3097
lfoot -21.3289 0.788086
ltoes -22.0739
440
root 0.254011 17.5747 -26.7859 1.41223 1.17854 2.25106
lowerback 10.6727 1.19672 -4.57203
upperback 1.42104 1.07805 0.38854
thorax -4.59283 0.614536 2.82715
lowerneck -6.24367 9.75731 6.958
upperneck 12.7888 14.3361 -12.7263
head 6.33917 6.52341 -3.96385
rclavicle 6.43565e-015 -4.96962e-015
rhumerus -29.3629 -6.19821 -84.5589
rradius 40.2489
rwrist 0.40843
rhand -8.22154 -398.168
rfingers 7.12502
rthumb 17.6957 -67.3831
lclavicle 6.43565e-015 -4.96962e-015
lhumerus -38.8301 20.1829 76.2209
lradius 42.6222
lwrist 0.769502
lhand -12.7393 -15.5265
lfingers 7.12502
lthumb 13.3445 14.0262
rfemur -17.9166 -5.03271 15.5008
rtibia 45.2595
rfoot -26.2326 -3.54766
rtoes 6.99162
lfemur -9.00812 1.13742 -24.4769
ltibia 27.5343
lfoot -21.3917 0.643223
ltoes -22.3304
441
root 0.258268 17.5718 -26.8031 1.34171 1.41055 2.15804
lowerback 10.4313 1.08506 -4.73225
upperback 1.4728 0.925333 0.383499
thorax -4.39375 0.536531 2.93744
lowerneck -6.55138 9.53532 6.55078
upperneck 13.453 14.0279 -12.0317
head 6.48775 6.36447 -3.6964
rclavicle -1.36167e-014 -1.19271e-015
rhumerus -29.1313 -4.82639 -85.1345
rradius 41.726
rwrist -0.224156
rhand -8.05163 -397.771
rfingers 7.12502
rthumb 17.8592 -66.9711
lclavicle -1.36167e-014 -1.19271e-015
lhumerus -38.8736 20.6428 75.9121
lradius 41.6066
lwrist 0.45363
lhand -12.1765 -15.598
lfingers 7.12502
lthumb 13.8869 13.9183
rfemur -17.3542 -5.0366 15.9731
rtibia 44.6983
rfoot -25.9076 -1.82989
rtoes 3.77008
lfemur -9.10798 1.30686 -24.3692
ltibia 27.7304
lfoot -21.4915 0.282215
ltoes -22.6406
442
root 0.259646 17.5661 -26.8149 1.29747 1.7038 2.27018
lowerback 10.2547 0.98667 -5.01824
upperback 1.4266 0.766201 0.269762
thorax -4.33216 0.461176 3.00353
lowerneck -6.73817 9.31109 6.24452
upperneck 14.1267 13.7046 -11.3216
head 6.62725 6.21128 -3.44651
rclavicle -5.35476e-015 -1.02374e-014
rhumerus -29.0932 -3.74954 -85.6098
rradius 43.0324
rwrist -1.13284
rhand -7.88257 -397.235
rfingers 7.12502
rthumb 18.0218 -66.4202
lclavicle -5.35476e-015 -1.02374e-014
lhumerus -39.0513 21.027 75.4616
lradius 40.5618
lwrist -0.313779
lhand -11.3388 -15.5763
lfingers 7.12502
lthumb 14.6941 13.883
rfemur -16.6757 -4.88599 16.1774
rtibia 43.6881
rfoot -24.5983 0.00966357
rtoes 6.23913
lfemur -9.19238 1.40153 -24.4734
ltibia 27.9026
lfoot -21.6094 -0.056204
ltoes -22.6022
443
root 0.259557 17.5641 -26.8219 1.30603 2.07643 2.269
lowerback 10.0539 0.906805 -5.17102
upperback 1.34649 0.649873 0.199557
thorax -4.29469 0.406357 3.03339
lowerneck -6.92266 9.05326 6.02686
upperneck 14.7858 13.3466 -10.7691
head 6.78057 6.03822 -3.2633
rclavicle -1.34304e-014 1.27222e-014
rhumerus -29.1232 -3.05368 -85.872
rradius 44.1337
rwrist -2.07973
rhand -7.52358 -396.838
rfingers 7.12502
rthumb 18.3672 -65.9912
lclavicle -1.34304e-014 1.27222e-014
lhumerus -39.2292 21.3821 75.0552
lradius 39.611
lwrist -1.19417
lhand -10.2494 -15.1604
lfingers 7.12502
lthumb 15.7434 14.2193
rfemur -15.93 -4.73033 16.5088
rtibia 42.2822
rfoot -23.2237 1.09923
rtoes 12.6683
lfemur -9.31448 1.33956 -24.4539
ltibia 28.0637
lfoot -21.7452 -0.352905
ltoes -22.3228
444
root 0.255601 17.5626 -26.8222 1.3631 2.55054 2.19257
lowerback 9.81767 0.827064 -5.21544
upperback 1.22748 0.547794 0.147213
thorax -4.2783 0.358258 3.01837
lowerneck -7.11884 8.72191 5.84478
upperneck 15.4741 12.8939 -10.2841
head 6.94804 5.81789 -3.11607
rclavicle -1.49896e-014 -1.04362e-015
rhumerus -29.2628 -2.75927 -85.9727
rradius 45.0868
rwrist -2.90397
rhand -7.07584 -396.286
rfingers 7.12502
rthumb 18.7979 -65.3982
lclavicle -1.49896e-014 -1.04362e-015
lhumerus -39.3738 21.8597 74.6361
lradius 38.6389
lwrist -2.13071
lhand -8.82975 -14.5386
lfingers 7.12502
lthumb 17.1103 14.7279
rfemur -15.1287 -4.59987 16.9313
rtibia 40.6053
rfoot -22.4658 1.03827
rtoes 20.804
lfemur -9.49896 1.19711 -24.3264
ltibia 28.2595
lfoot -21.8941 -0.778032
ltoes -21.9799
445
root 0.250728 17.5588 -26.8195 1.38183 3.01505 1.96911
lowerback 9.67283 0.716899 -5.01934
upperback 1.06459 0.423987 0.0910179
thorax -4.35493 0.29838 2.86573
lowerneck -7.30467 8.39014 5.62273
upperneck 16.1918 12.4263 -9.69753
head 7.11691 5.59761 -2.93176
rclavicle -2.42044e-015 -4.53973e-015
rhumerus -29.456 -2.5723 -86.0873
rradius 45.7563
rwrist -3.76477
rhand -6.74326 -395.596
rfingers 7.12502
rthumb 19.1177 -64.6764
lclavicle -2.42044e-015 -4.53973e-015
lhumerus -39.628 22.5572 74.0614
lradius 37.7224
lwrist -3.07977
lhand -7.28731 -13.9192
lfingers 7.12502
lthumb 18.5945 15.2121
rfemur -14.2353 -4.15063 17.478
rtibia 38.8496
rfoot -22.9335 -1.65764
rtoes 22.802
lfemur -9.66436 1.03866 -24.0322
ltibia 28.4848
lfoot -22.0257 -1.06135
ltoes -21.4924
